<svg width="52" height="52" viewBox="0 0 52 52" fill="none" xmlns="http://www.w3.org/2000/svg">
<g clip-path="url(#clip0_15_292)">
<path d="M29.7841 36.7609H21.8265C21.7265 38.3448 21.2101 40.0923 20.3399 41.7341C19.964 42.4429 19.5339 43.1103 19.0642 43.7186H32.5464C32.0768 43.1103 31.6465 42.4429 31.2706 41.7341C30.4006 40.0925 29.8843 38.3449 29.7841 36.7609Z" fill="white"/>
<path d="M50.7882 30.9518L36.8403 16.7459C36.1481 16.0409 35.2017 15.6438 34.2137 15.6438H31.8348C33.1361 13.0037 33.9287 10.1027 33.9287 8.50628C33.9287 5.08592 30.2917 1.48392 25.8052 1.48392C21.3187 1.48392 17.6817 5.08608 17.6817 8.50628C17.6817 10.0808 18.4531 12.9244 19.7228 15.5351V15.6438H17.3968C16.4087 15.6438 15.4622 16.0409 14.7701 16.7459L0.822476 30.9518C0.483243 31.2974 0.464996 31.8451 0.780341 32.2126L3.69591 35.6082C4.02105 35.9867 4.58654 36.0423 4.97903 35.7343L13.7908 28.8191L11.16 47.978C11.0884 48.4995 11.2459 49.0265 11.5918 49.4232C11.9378 49.82 12.4385 50.0476 12.9648 50.0476H38.6458C39.1721 50.0476 39.6728 49.8198 40.0188 49.4232C40.3649 49.0264 40.5223 48.4994 40.4506 47.978L37.8199 28.8191L46.6316 35.7343C47.0241 36.0423 47.5896 35.9867 47.9147 35.6082L50.8303 32.2126C51.1458 31.845 51.1276 31.2974 50.7882 30.9518ZM25.8054 7.40033C28.0674 7.40033 29.9011 9.21642 29.9011 10.9408C29.9011 12.6651 28.0674 17.4086 25.8054 17.4086C23.5434 17.4086 21.7097 12.6653 21.7097 10.9408C21.7097 9.21626 23.5434 7.40033 25.8054 7.40033ZM36.7549 45.3406C36.5905 45.8565 36.1111 46.207 35.5695 46.207H16.0412C15.4995 46.207 15.0203 45.8567 14.8557 45.3406C14.6912 44.8247 14.8795 44.2615 15.3212 43.948C16.3845 43.1937 17.386 41.9936 18.1412 40.5688C19.0334 38.8861 19.4769 37.0467 19.328 35.6485C19.2906 35.2977 19.4041 34.9473 19.64 34.6849C19.8761 34.4225 20.2123 34.2727 20.5651 34.2727H31.0453C31.3982 34.2727 31.7344 34.4225 31.9705 34.6849C32.2064 34.9473 32.3197 35.2975 32.2825 35.6485C32.1335 37.0471 32.5771 38.8862 33.4691 40.5688C34.2243 41.9936 35.2259 43.1937 36.2893 43.948C36.7312 44.2615 36.9194 44.8247 36.7549 45.3406Z" fill="white"/>
</g>
<defs>
<clipPath id="clip0_15_292">
<rect width="50.5" height="50.5" fill="white" transform="translate(0.55542 0.515808)"/>
</clipPath>
</defs>
</svg>
