<svg width="50" height="50" viewBox="0 0 50 50" fill="none" xmlns="http://www.w3.org/2000/svg">
<g clip-path="url(#clip0_15_284)">
<path d="M49.7292 39.4904L48.2842 34.7939V29.1572C48.2842 17.9381 39.5717 8.71609 28.5574 7.90078C28.559 7.86397 28.5609 7.82726 28.5609 7.79026C28.5609 6.45913 27.4779 5.37625 26.1469 5.37625H24.5033C23.1722 5.37625 22.0893 6.45922 22.0893 7.79026C22.0893 7.82726 22.0912 7.86397 22.0929 7.90078C11.0785 8.71628 2.366 17.9382 2.366 29.1572V34.794L0.920883 39.4904C0.465704 40.9695 0.797862 42.553 1.80914 43.7262C2.81272 44.8904 4.31675 45.4481 5.83251 45.2182C11.5218 44.3546 18.2622 43.8983 25.3251 43.8983C32.3879 43.8983 39.1284 44.3547 44.8176 45.2182C45.0428 45.2524 45.2675 45.2691 45.4906 45.2691C46.7688 45.2691 47.9864 44.7174 48.841 43.7261C49.8523 42.553 50.1844 40.9696 49.7292 39.4904ZM46.7434 29.1572V33.9054C44.9893 33.4565 43.019 33.0687 40.888 32.7483V29.1572C40.888 23.5189 39.4174 18.2079 36.7469 14.2022C35.7444 12.6983 34.6161 11.4435 33.3962 10.4557C41.1543 13.1296 46.7434 20.5026 46.7434 29.1572ZM43.1856 34.6983L44.9425 40.3557C39.1482 39.5142 32.3814 39.0702 25.3251 39.0702C18.2687 39.0702 11.5023 39.5142 5.70766 40.3557L7.46456 34.6983C12.5029 33.7446 18.7705 33.2148 25.3251 33.2148C31.8796 33.2148 38.1473 33.7445 43.1856 34.6983ZM24.5033 6.91709H26.1469C26.6284 6.91709 27.0201 7.30874 27.0201 7.79026C27.0201 7.80775 27.0177 7.82486 27.0167 7.84225C27.0006 7.84225 26.9848 7.84168 26.9687 7.84168H26.4209H24.2294H23.6816C23.6655 7.84168 23.6497 7.84225 23.6336 7.84225C23.6325 7.82486 23.6301 7.80775 23.6301 7.79026C23.6301 7.30884 24.0218 6.91709 24.5033 6.91709ZM24.2293 9.38252H26.4207C33.5484 9.38252 39.347 18.2534 39.347 29.1572V32.5319C35.0906 31.975 30.2847 31.6739 25.325 31.6739C20.3652 31.6739 15.5593 31.975 11.3029 32.5319V29.1572C11.3031 18.2534 17.1018 9.38252 24.2293 9.38252ZM3.90684 29.1572C3.90684 20.5025 9.49595 13.1295 17.254 10.4558C16.0341 11.4437 14.9058 12.6986 13.9033 14.2023C11.2329 18.2079 9.76218 23.5189 9.76218 29.1572V32.7484C7.63122 33.069 5.66095 33.4567 3.90684 33.9055V29.1572ZM47.6739 42.7201C47.0185 43.4803 46.037 43.8446 45.0488 43.6947C39.2844 42.8198 32.464 42.3573 25.3251 42.3573C18.1861 42.3573 11.3656 42.8198 5.60127 43.6947C4.61306 43.8448 3.63168 43.4803 2.9762 42.7201C2.31314 41.951 2.09535 40.9129 2.39368 39.9435L3.74864 35.5397C4.38172 35.3683 5.04767 35.2058 5.7413 35.0518L4.06273 40.4569C3.90982 40.9538 4.10839 41.3279 4.24035 41.5065C4.50177 41.8606 4.90889 42.0336 5.33918 41.968C11.1887 41.0801 18.0998 40.611 25.3251 40.611C32.5504 40.611 39.4614 41.0802 45.3105 41.968C45.3736 41.9776 45.4366 41.9825 45.4974 41.9825C45.8537 41.9825 46.1862 41.809 46.4095 41.5066C46.5414 41.3279 46.74 40.9541 46.5867 40.4552L44.9087 35.0518C45.6023 35.2059 46.2684 35.3684 46.9014 35.5397L48.2563 39.9435C48.5549 40.913 48.3371 41.9509 47.6739 42.7201Z" fill="white"/>
<path d="M27.7905 24.2778H22.8597C21.5285 24.2778 20.4456 25.3607 20.4456 26.6918C20.4456 28.0228 21.5286 29.1058 22.8597 29.1058H27.7905C29.1216 29.1058 30.2045 28.0228 30.2045 26.6918C30.2045 25.3607 29.1216 24.2778 27.7905 24.2778ZM27.7905 27.5649H22.8597C22.3781 27.5649 21.9865 27.1733 21.9865 26.6918C21.9865 26.2103 22.3781 25.8186 22.8597 25.8186H27.7905C28.272 25.8186 28.6637 26.2103 28.6637 26.6918C28.6637 27.1733 28.272 27.5649 27.7905 27.5649Z" fill="white"/>
</g>
<defs>
<clipPath id="clip0_15_284">
<rect width="49.2086" height="49.2086" fill="white" transform="translate(0.720825 0.718445)"/>
</clipPath>
</defs>
</svg>
