<svg width="62" height="61" viewBox="0 0 62 61" fill="none" xmlns="http://www.w3.org/2000/svg">
<path d="M36.3421 12.3964L37.0203 13.4128C37.9702 14.8376 39.904 17.6936 40.7551 19.9862C41.1807 21.1325 41.2865 22.1116 41.0471 22.6067C40.9274 22.8542 40.7486 23.0224 40.38 23.1407C40.015 23.2579 39.4511 23.2948 38.6798 23.1869C38.5609 23.1118 37.96 22.7105 36.7117 22.3701C35.3498 21.9987 33.3776 21.7559 30.9348 22.2444C28.5396 22.7235 27.3047 23.214 26.3666 23.5658C25.4285 23.9175 24.8245 24.1276 23.4578 24.1276C22.1962 24.1276 21.6748 23.5655 20.9796 22.7545C20.2845 21.9435 19.4843 20.8848 17.9304 20.3669C16.4072 19.8591 13.9844 19.6118 11.9004 19.4687C9.81641 19.3257 8.0898 19.3024 8.0898 19.3024L6.63727 19.2821L7.79966 20.1525C7.79966 20.1525 11.394 22.9276 11.394 26.3969C11.394 28.4075 12.1932 29.5483 13.024 30.1022C13.8547 30.656 14.7057 30.6547 14.7057 30.6547H22.2751C23.3632 30.6547 23.8005 30.9343 24.064 31.3514C24.3274 31.7685 24.404 32.4513 24.404 33.2567C24.404 34.0621 24.3396 34.969 24.4687 35.8402C24.5977 36.7114 24.9565 37.5841 25.7974 38.1447C27.1783 39.0653 28.1273 39.9986 28.6027 40.8649C29.078 41.7313 29.1199 42.4971 28.7117 43.3135L28.3643 44.0065L36.9408 43.8957V43.4281C36.9408 40.8734 35.5006 37.8003 35.1631 35.4374C34.9943 34.2559 35.0925 33.325 35.6306 32.6912C36.1673 32.0592 37.2453 31.6052 39.2934 31.6027C39.4152 31.6269 41.7214 32.0773 44.1518 31.4697C45.3993 31.1578 46.6791 30.5548 47.6463 29.4424C48.6136 28.3301 49.2412 26.7211 49.2412 24.5046C49.2412 20.0365 46.253 17.0523 43.3423 15.2331C40.4317 13.414 37.5285 12.6921 37.5285 12.6921L36.3421 12.3964ZM38.5338 14.0116C39.579 14.3585 41.0601 14.9236 42.8415 16.037C45.6079 17.766 48.295 20.457 48.295 24.5046C48.295 26.5458 47.7399 27.8936 46.933 28.8215C46.1262 29.7494 45.0405 30.2717 43.9226 30.5512C41.6868 31.1102 39.3987 30.6639 39.3987 30.6639L39.3543 30.6547H39.3063C37.1073 30.6547 35.7024 31.1461 34.9099 32.0795C34.1174 33.0128 34.0401 34.27 34.2261 35.5722C34.5753 38.0163 35.7494 40.8228 35.9023 42.9642L29.7078 43.0437C29.9354 42.1654 29.8991 41.2608 29.4324 40.4103C28.8433 39.3367 27.7799 38.3291 26.3222 37.3574C25.7438 36.9718 25.5112 36.427 25.4038 35.7016C25.2963 34.9761 25.3502 34.1071 25.3502 33.2567C25.3502 32.4062 25.3103 31.5533 24.8641 30.8469C24.4179 30.1404 23.5524 29.7085 22.2751 29.7085H14.7057C14.7057 29.7085 14.1373 29.7072 13.5488 29.3149C12.9603 28.9225 12.3402 28.171 12.3402 26.3969C12.3402 23.2407 10.366 21.2593 9.28177 20.3003C9.92941 20.3172 10.4391 20.3172 11.8357 20.413C13.8913 20.5541 16.3157 20.8265 17.6311 21.265C18.9157 21.6932 19.5366 22.5269 20.2608 23.3717C20.9849 24.2165 21.8808 25.0737 23.4578 25.0737C24.9296 25.0737 25.7449 24.8106 26.6992 24.4528C27.6535 24.0949 28.7839 23.6392 31.1196 23.1721C33.4078 22.7145 35.2221 22.9448 36.4622 23.283C37.7024 23.6212 38.3343 24.0481 38.3343 24.0481L38.4248 24.1072L38.5301 24.122C39.4029 24.2467 40.1018 24.225 40.6701 24.0425C41.2385 23.86 41.6713 23.4879 41.8991 23.0169C42.3545 22.0748 42.1036 20.9002 41.6422 19.6572C40.8931 17.6397 39.553 15.551 38.5338 14.0116Z" fill="white"/>
<path d="M46.8758 32.0739C42.4396 32.0739 38.8333 35.6803 38.8333 40.1165C38.8333 44.5526 42.4396 48.159 46.8758 48.159C51.3119 48.159 54.9183 44.5526 54.9183 40.1165C54.9183 35.6803 51.3119 32.0739 46.8758 32.0739ZM46.8758 33.0201C50.8006 33.0201 53.9721 36.1917 53.9721 40.1165C53.9721 44.0413 50.8006 47.2128 46.8758 47.2128C42.951 47.2128 39.7794 44.0413 39.7794 40.1165C39.7794 36.1917 42.951 33.0201 46.8758 33.0201Z" fill="white"/>
<path d="M15.1788 32.0739C10.7427 32.0739 7.13631 35.6803 7.13631 40.1165C7.13631 44.5526 10.7427 48.159 15.1788 48.159C19.615 48.159 23.2213 44.5526 23.2213 40.1165C23.2213 35.6803 19.615 32.0739 15.1788 32.0739ZM15.1788 33.0201C19.1036 33.0201 22.2752 36.1917 22.2752 40.1165C22.2752 44.0413 19.1036 47.2128 15.1788 47.2128C11.254 47.2128 8.08249 44.0413 8.08249 40.1165C8.08249 36.1917 11.254 33.0201 15.1788 33.0201Z" fill="white"/>
<path d="M15.1788 35.3856C12.5716 35.3856 10.4479 37.5093 10.4479 40.1165C10.4479 42.7237 12.5716 44.8474 15.1788 44.8474C17.786 44.8474 19.9097 42.7237 19.9097 40.1165C19.9097 37.5093 17.786 35.3856 15.1788 35.3856ZM15.1788 36.3318C17.2746 36.3318 18.9635 38.0207 18.9635 40.1165C18.9635 42.2124 17.2746 43.9012 15.1788 43.9012C13.083 43.9012 11.3941 42.2124 11.3941 40.1165C11.3941 38.0207 13.083 36.3318 15.1788 36.3318Z" fill="white"/>
<path d="M46.8757 35.3856C44.2685 35.3856 42.1448 37.5093 42.1448 40.1165C42.1448 42.7237 44.2685 44.8474 46.8757 44.8474C49.4829 44.8474 51.6066 42.7237 51.6066 40.1165C51.6066 37.5093 49.4829 35.3856 46.8757 35.3856ZM46.8757 36.3318C48.9716 36.3318 50.6604 38.0207 50.6604 40.1165C50.6604 42.2124 48.9716 43.9012 46.8757 43.9012C44.7799 43.9012 43.091 42.2124 43.091 40.1165C43.091 38.0207 44.7799 36.3318 46.8757 36.3318Z" fill="white"/>
<path d="M42.5939 17.5542L42.1707 18.4006C43.9079 19.2692 45.4902 21.3049 45.8168 23.3736C46.1434 25.4422 45.3614 27.5401 42.1947 28.8973L42.568 29.7658C46.0246 28.2844 47.1349 25.6514 46.7519 23.2257C46.3689 20.8001 44.6414 18.578 42.5939 17.5542Z" fill="white"/>
<path d="M13.8741 21.2613C13.2938 21.1319 12.6658 21.1281 11.9854 21.3038L12.222 22.2204C13.3198 21.9369 14.107 22.1964 14.9515 22.7581C15.7959 23.3199 16.645 24.2071 17.6625 25.0755C19.6974 26.8124 22.5156 28.4048 27.3793 26.9457L27.1076 26.0402C22.5095 27.4196 20.2158 26.0124 18.276 24.3567C17.3061 23.5288 16.4529 22.6206 15.4763 21.9709C14.988 21.646 14.4543 21.3907 13.8741 21.2613Z" fill="white"/>
<path d="M8.79204 40.6856C8.79204 42.2626 9.56593 43.7843 10.7047 44.9231C11.8435 46.0619 13.3652 46.8358 14.9422 46.8358V45.8896C13.6806 45.8896 12.3638 45.2442 11.3737 44.2541C10.3836 43.264 9.73822 41.9472 9.73822 40.6856H8.79204Z" fill="white"/>
<path d="M45.9093 33.7686L45.9647 34.7148C49.7398 34.4943 52.3163 37.1375 52.3163 40.6857H53.2625C53.2625 36.6644 50.1627 33.5202 45.9093 33.7686Z" fill="white"/>
</svg>
