<svg width="25" height="25" viewBox="0 0 25 25" fill="none" xmlns="http://www.w3.org/2000/svg">
<g clip-path="url(#clip0_14_463)">
<path fill-rule="evenodd" clip-rule="evenodd" d="M20.3951 1.16992C22.052 1.16992 23.3951 2.51307 23.3951 4.16992V20.1699C23.3951 21.8268 22.052 23.1699 20.3951 23.1699H4.39514C2.73829 23.1699 1.39514 21.8268 1.39514 20.1699V4.16992C1.39514 2.51307 2.73829 1.16992 4.39514 1.16992H20.3951ZM20.3951 3.16992C20.9474 3.16992 21.3951 3.61764 21.3951 4.16992V20.1699C21.3951 20.7222 20.9474 21.1699 20.3951 21.1699H15.3951V14.1698H17.4713C17.9017 14.1698 18.2838 13.8944 18.42 13.486L18.863 12.157C19.0249 11.6713 18.6634 11.1698 18.1515 11.1698H15.3951V9.16984C15.3951 8.66984 15.8951 8.16984 16.3951 8.16984H18.3951C18.9474 8.16984 19.3951 7.72212 19.3951 7.16984V6.48385C19.3951 6.16083 19.1888 5.87122 18.8764 5.78879C17.5656 5.44287 16.3951 5.44287 16.3951 5.44287C13.8951 5.44287 12.3951 7.16984 12.3951 8.66984V11.1698H10.3951C9.84286 11.1698 9.39514 11.6175 9.39514 12.1698V13.1698C9.39514 13.7221 9.84285 14.1698 10.3951 14.1698H12.3951V21.1699H4.39514C3.84286 21.1699 3.39514 20.7222 3.39514 20.1699V4.16992C3.39514 3.61764 3.84286 3.16992 4.39514 3.16992H20.3951Z" fill="white" stroke="black"/>
</g>
<defs>
<clipPath id="clip0_14_463">
<rect width="24" height="24" fill="white" transform="translate(0.395142 0.169922)"/>
</clipPath>
</defs>
</svg>
