<svg width="52" height="51" viewBox="0 0 52 51" fill="none" xmlns="http://www.w3.org/2000/svg">
<path d="M51.4866 25.4687C51.4866 11.4028 40.0837 0 26.0179 0C11.9521 0 0.549255 11.4028 0.549255 25.4687C0.549255 37.4124 8.77258 47.4349 19.8657 50.1875V33.2519H14.6141V25.4687H19.8657V22.1149C19.8657 13.4464 23.7889 9.4285 32.2995 9.4285C33.9132 9.4285 36.6974 9.74533 37.8364 10.0611V17.116C37.2353 17.0528 36.1911 17.0212 34.8943 17.0212C30.7184 17.0212 29.1047 18.6033 29.1047 22.716V25.4687H37.4238L35.9945 33.2519H29.1047V50.7509C41.7158 49.2279 51.4876 38.4903 51.4876 25.4687H51.4866Z" fill="#0866FF"/>
<path d="M35.9935 33.2519L37.4228 25.4687H29.1037V22.716C29.1037 18.6033 30.7174 17.0212 34.8932 17.0212C36.1901 17.0212 37.2343 17.0528 37.8354 17.116V10.0611C36.6964 9.74431 33.9122 9.4285 32.2985 9.4285C23.7879 9.4285 19.8647 13.4464 19.8647 22.1149V25.4687H14.6131V33.2519H19.8647V50.1875C21.835 50.6765 23.8959 50.9373 26.0169 50.9373C27.0611 50.9373 28.0911 50.8731 29.1027 50.7509V33.2519H35.9925H35.9935Z" fill="white"/>
</svg>
