<svg width="1279" height="75" viewBox="0 0 1279 75" fill="none" xmlns="http://www.w3.org/2000/svg">
<g clip-path="url(#clip0_10_27)">
<path opacity="0.5" d="M-1 75V0.225006C78.36 23.25 155.672 38.475 261.4 25.5C368.664 12.3 466.84 10.2 568.6 34.5C637.72 51 709.4 54 790.04 42C883.399 27.1843 982.074 28.4865 1074.2 45.75C1144.6 58.5 1215.38 73.425 1279 66.15V75H-1Z" fill="#939292"/>
<path d="M-1 75.025V19C78.36 42.025 155.672 53.5 261.4 40.525C368.664 27.325 466.84 21.475 568.6 45.775C637.72 62.275 709.4 61.525 790.04 49.525C887.96 34.975 977.56 32.05 1074.2 49.525C1144.6 62.275 1215.38 73.45 1279 66.175V75.025H-1Z" fill="#939292"/>
</g>
<defs>
<clipPath id="clip0_10_27">
<rect width="1280" height="75" fill="white" transform="matrix(1 0 0 -1 -1 75)"/>
</clipPath>
</defs>
</svg>
