<svg width="25" height="25" viewBox="0 0 25 25" fill="none" xmlns="http://www.w3.org/2000/svg">
<g clip-path="url(#clip0_14_454)">
<path fill-rule="evenodd" clip-rule="evenodd" d="M12.3951 18.1699C15.7088 18.1699 18.3951 15.4836 18.3951 12.1699C18.3951 8.85621 15.7088 6.16992 12.3951 6.16992C9.08143 6.16992 6.39514 8.85621 6.39514 12.1699C6.39514 15.4836 9.08143 18.1699 12.3951 18.1699ZM12.3951 16.1699C14.6042 16.1699 16.3951 14.379 16.3951 12.1699C16.3951 9.96078 14.6042 8.16992 12.3951 8.16992C10.186 8.16992 8.39514 9.96078 8.39514 12.1699C8.39514 14.379 10.186 16.1699 12.3951 16.1699Z" fill="white" stroke="black"/>
<path d="M18.3951 5.16992C17.8428 5.16992 17.3951 5.61764 17.3951 6.16992C17.3951 6.7222 17.8428 7.16992 18.3951 7.16992C18.9474 7.16992 19.3951 6.7222 19.3951 6.16992C19.3951 5.61764 18.9474 5.16992 18.3951 5.16992Z" fill="white" stroke="black"/>
<path fill-rule="evenodd" clip-rule="evenodd" d="M2.0491 4.44598C1.39514 5.72945 1.39514 7.40961 1.39514 10.7699V13.5699C1.39514 16.9302 1.39514 18.6104 2.0491 19.8938C2.62434 21.0228 3.54222 21.9407 4.6712 22.5159C5.95467 23.1699 7.63483 23.1699 10.9951 23.1699H13.7951C17.1554 23.1699 18.8356 23.1699 20.119 22.5159C21.248 21.9407 22.1659 21.0228 22.7411 19.8938C23.3951 18.6104 23.3951 16.9302 23.3951 13.5699V10.7699C23.3951 7.40961 23.3951 5.72945 22.7411 4.44598C22.1659 3.317 21.248 2.39912 20.119 1.82388C18.8356 1.16992 17.1554 1.16992 13.7951 1.16992H10.9951C7.63483 1.16992 5.95467 1.16992 4.6712 1.82388C3.54222 2.39912 2.62434 3.317 2.0491 4.44598ZM13.7951 3.16992H10.9951C9.28198 3.16992 8.11739 3.17148 7.21722 3.24502C6.34038 3.31666 5.89198 3.44651 5.57918 3.60589C4.82653 3.98939 4.21461 4.60131 3.83111 5.35396C3.67173 5.66676 3.54188 6.11516 3.47024 6.992C3.3967 7.89217 3.39514 9.05676 3.39514 10.7699V13.5699C3.39514 15.2831 3.3967 16.4476 3.47024 17.3478C3.54188 18.2247 3.67173 18.6731 3.83111 18.9859C4.21461 19.7385 4.82653 20.3504 5.57918 20.7339C5.89198 20.8933 6.34038 21.0232 7.21722 21.0948C8.11739 21.1683 9.28198 21.1699 10.9951 21.1699H13.7951C15.5083 21.1699 16.6728 21.1683 17.573 21.0948C18.4499 21.0232 18.8983 20.8933 19.2111 20.7339C19.9637 20.3504 20.5756 19.7385 20.9591 18.9859C21.1185 18.6731 21.2484 18.2247 21.32 17.3478C21.3935 16.4476 21.3951 15.2831 21.3951 13.5699V10.7699C21.3951 9.05676 21.3935 7.89217 21.32 6.992C21.2484 6.11516 21.1185 5.66676 20.9591 5.35396C20.5756 4.60131 19.9637 3.98939 19.2111 3.60589C18.8983 3.44651 18.4499 3.31666 17.573 3.24502C16.6728 3.17148 15.5083 3.16992 13.7951 3.16992Z" fill="white" stroke="black"/>
</g>
<defs>
<clipPath id="clip0_14_454">
<rect width="24" height="24" fill="white" transform="translate(0.395142 0.169922)"/>
</clipPath>
</defs>
</svg>
