<svg width="51" height="51" viewBox="0 0 51 51" fill="none" xmlns="http://www.w3.org/2000/svg">
<path d="M36.518 18.3873C39.7936 20.7371 43.8063 22.1197 48.1403 22.1197V13.7502C47.3201 13.7503 46.502 13.6645 45.6995 13.4939V20.0819C41.3659 20.0819 37.3537 18.6993 34.0772 16.3496V33.4295C34.0772 41.9737 27.1754 48.8997 18.6621 48.8997C15.4855 48.8997 12.5331 47.9359 10.0805 46.2831C12.8797 49.1554 16.7835 50.9373 21.1023 50.9373C29.6162 50.9373 36.5183 44.0113 36.5183 35.4668V18.3873H36.518ZM39.5289 9.94341C37.8549 8.10803 36.7558 5.73616 36.518 3.11395V2.03744H34.205C34.7872 5.37027 36.773 8.21764 39.5289 9.94341ZM15.4652 39.7265C14.5299 38.4958 14.0245 36.9903 14.0267 35.4423C14.0267 31.5345 17.1836 28.366 21.0783 28.366C21.8041 28.3658 22.5256 28.4774 23.2173 28.6976V20.141C22.4089 20.0298 21.5931 19.9826 20.7776 19.9999V26.66C20.0854 26.4397 19.3635 26.3279 18.6375 26.3285C14.7428 26.3285 11.5861 29.4967 11.5861 33.405C11.5861 36.1685 13.164 38.561 15.4652 39.7265Z" fill="#FF004F"/>
<path d="M34.0771 16.3495C37.3536 18.6991 41.3658 20.0817 45.6994 20.0817V13.4937C43.2804 12.9766 41.1389 11.708 39.5288 9.94341C36.7728 8.21747 34.7871 5.3701 34.2049 2.03744H28.1294V35.4664C28.1156 39.3636 24.9642 42.5191 21.0778 42.5191C18.7877 42.5191 16.7531 41.4236 15.4645 39.7265C13.1636 38.561 11.5857 36.1683 11.5857 33.4052C11.5857 29.4972 14.7424 26.3287 18.6371 26.3287C19.3833 26.3287 20.1025 26.4453 20.7771 26.6602V20.0001C12.4134 20.1735 5.68686 27.0318 5.68686 35.4666C5.68686 39.6772 7.36191 43.4942 10.0805 46.2832C12.5331 47.9359 15.4856 48.8998 18.6621 48.8998C27.1756 48.8998 34.0773 41.9735 34.0773 33.4295V16.3495H34.0771Z" fill="black"/>
<path d="M45.6995 13.4937V11.7124C43.5181 11.7157 41.3796 11.1026 39.5289 9.94325C41.1672 11.7433 43.3245 12.9845 45.6995 13.4937ZM34.205 2.03746C34.1494 1.71895 34.1068 1.39834 34.0772 1.0765V0H25.6885V33.4293C25.6751 37.3259 22.5238 40.4815 18.6371 40.4815C17.496 40.4815 16.4187 40.2097 15.4646 39.7267C16.7531 41.4236 18.7877 42.519 21.0779 42.519C24.9639 42.519 28.1159 39.3638 28.1294 35.4666V2.03746H34.205ZM20.7776 20.0001V18.1037C20.0766 18.0076 19.3699 17.9593 18.6624 17.9597C10.1482 17.9595 3.24634 24.8858 3.24634 33.4293C3.24634 38.7856 5.95888 43.5061 10.0808 46.2829C7.36215 43.4941 5.6871 39.6768 5.6871 35.4664C5.6871 27.0318 12.4134 20.1735 20.7776 20.0001Z" fill="#00F2EA"/>
</svg>
