<svg width="21" height="21" viewBox="0 0 21 21" fill="none" xmlns="http://www.w3.org/2000/svg">
<path d="M18.0498 6.54879C16.9505 6.54754 15.8966 6.11031 15.1193 5.333C14.342 4.5557 13.9048 3.5018 13.9036 2.40253C13.9036 2.31794 13.8699 2.23682 13.8101 2.17701C13.7503 2.1172 13.6692 2.08359 13.5846 2.08359H10.3952C10.3106 2.08359 10.2295 2.1172 10.1697 2.17701C10.1098 2.23682 10.0762 2.31794 10.0762 2.40253V12.6087C10.0761 12.9512 9.98414 13.2873 9.80985 13.5821C9.63556 13.8768 9.38537 14.1195 9.08537 14.2846C8.78537 14.4497 8.44655 14.5313 8.10427 14.5209C7.76198 14.5104 7.42877 14.4084 7.13938 14.2253C6.85 14.0422 6.61505 13.7848 6.45904 13.4799C6.30303 13.1751 6.23169 12.8339 6.25244 12.4921C6.2732 12.1503 6.3853 11.8203 6.57704 11.5366C6.76879 11.2529 7.03315 11.0258 7.34257 10.879C7.39706 10.8532 7.44309 10.8124 7.47532 10.7614C7.50755 10.7104 7.52466 10.6513 7.52466 10.591L7.5247 7.27085C7.5247 7.22423 7.51449 7.17818 7.49477 7.13593C7.47505 7.09369 7.44631 7.05628 7.41058 7.02634C7.37484 6.99641 7.33297 6.97467 7.28792 6.96266C7.24288 6.95066 7.19574 6.94867 7.14985 6.95685C6.07474 7.14943 5.07686 7.64468 4.27334 8.38448C3.46982 9.12428 2.89398 10.0779 2.61342 11.1335C2.33286 12.1891 2.35922 13.3028 2.68939 14.3439C3.01957 15.385 3.63987 16.3104 4.47748 17.0113C5.3151 17.7123 6.33528 18.1598 7.4183 18.3013C8.50132 18.4428 9.60223 18.2725 10.5918 17.8102C11.5814 17.348 12.4187 16.6131 13.0053 15.6918C13.5919 14.7705 13.9035 13.7009 13.9036 12.6087L13.9035 9.21488C15.1518 9.97763 16.587 10.3796 18.0498 10.3761C18.1344 10.3761 18.2155 10.3425 18.2753 10.2827C18.3352 10.2229 18.3688 10.1418 18.3688 10.0572V6.86773C18.3688 6.78314 18.3352 6.70202 18.2753 6.64221C18.2155 6.5824 18.1344 6.54879 18.0498 6.54879ZM17.7309 9.73144C16.3051 9.67306 14.928 9.19671 13.7708 8.36165C13.7232 8.32738 13.667 8.30692 13.6085 8.30252C13.55 8.29812 13.4914 8.30996 13.4391 8.33673C13.3869 8.3635 13.3431 8.40416 13.3124 8.45423C13.2818 8.50431 13.2656 8.56186 13.2656 8.62055L13.2657 12.6087C13.2654 13.5631 12.9974 14.4983 12.4923 15.308C11.9872 16.1178 11.2651 16.7696 10.4081 17.1896C9.55109 17.6095 8.59348 17.7808 7.64404 17.6838C6.6946 17.5868 5.79137 17.2255 5.03696 16.641C4.28255 16.0564 3.70718 15.272 3.3762 14.3769C3.04522 13.4817 2.9719 12.5117 3.16456 11.5769C3.35722 10.6422 3.80814 9.78024 4.46611 9.08892C5.12409 8.39761 5.96274 7.90466 6.88681 7.66607L6.88677 10.3987C6.49885 10.6226 6.17671 10.9447 5.95273 11.3326C5.72875 11.7205 5.61082 12.1605 5.61079 12.6084C5.61076 13.0563 5.72864 13.4964 5.95257 13.8843C6.17651 14.2722 6.49861 14.5943 6.8865 14.8183C7.27439 15.0423 7.71441 15.1602 8.16232 15.1603C8.61023 15.1603 9.05026 15.0424 9.43818 14.8185C9.82609 14.5945 10.1482 14.2724 10.3722 13.8845C10.5962 13.4966 10.7141 13.0566 10.7141 12.6087V2.72147H13.2762C13.355 3.87696 13.8496 4.9648 14.6686 5.78375C15.4875 6.6027 16.5754 7.09734 17.7309 7.17617V9.73144Z" fill="white" stroke="white" stroke-width="0.0797357"/>
</svg>
