<svg width="27" height="27" viewBox="0 0 27 27" fill="none" xmlns="http://www.w3.org/2000/svg">
<path fill-rule="evenodd" clip-rule="evenodd" d="M14.4351 20.8623C17.6754 20.8616 20.5252 18.7194 21.4264 15.6069C22.3276 12.4944 21.063 9.16094 18.3243 7.42919C15.5856 5.69743 12.0319 5.9843 9.60634 8.13292C7.18081 10.2815 6.46736 13.7746 7.85607 16.7023L6.11511 20.8623L10.6828 19.8223C11.8152 20.5049 13.1129 20.8645 14.4351 20.8623Z" stroke="white" stroke-width="1.56" stroke-linecap="round" stroke-linejoin="round"/>
<path fill-rule="evenodd" clip-rule="evenodd" d="M12.3977 12.611C11.8057 12.6058 11.3294 12.1226 11.3328 11.5305C11.3362 10.9384 11.818 10.4607 12.4101 10.4624C13.0023 10.4641 13.4813 10.9446 13.4814 11.5367C13.4785 12.1325 12.9936 12.6133 12.3977 12.611Z" stroke="white" stroke-width="1.56" stroke-linecap="round" stroke-linejoin="round"/>
<path fill-rule="evenodd" clip-rule="evenodd" d="M15.3888 15.577C15.3855 16.0156 15.647 16.4129 16.0511 16.5831C16.4552 16.7534 16.9222 16.663 17.2337 16.3542C17.5452 16.0454 17.6395 15.5793 17.4728 15.1737C17.3061 14.7681 16.9111 14.5031 16.4725 14.5027C15.8767 14.5004 15.3917 14.9812 15.3888 15.577Z" stroke="white" stroke-width="1.56" stroke-linecap="round" stroke-linejoin="round"/>
<path d="M11.3151 11.5367C11.3005 15.1424 14.7471 17.0456 16.4725 16.6514" stroke="white" stroke-width="1.56" stroke-linecap="round"/>
</svg>
