<svg width="52" height="51" viewBox="0 0 52 51" fill="none" xmlns="http://www.w3.org/2000/svg">
<g clip-path="url(#clip0_7_187)">
<path d="M50.4362 13.1279C50.1482 12.0443 49.5807 11.0553 48.7904 10.2599C48 9.46447 47.0147 8.89059 45.9329 8.59568C41.9505 7.52483 26.0326 7.52483 26.0326 7.52483C26.0326 7.52483 10.1147 7.52483 6.13231 8.59568C5.05051 8.89059 4.06515 9.46447 3.27483 10.2599C2.48452 11.0553 1.91697 12.0443 1.62899 13.1279C0.563934 17.1277 0.563934 25.4687 0.563934 25.4687C0.563934 25.4687 0.563934 33.8096 1.62899 37.8094C1.91697 38.893 2.48452 39.8821 3.27483 40.6775C4.06515 41.4729 5.05051 42.0467 6.13231 42.3416C10.1147 43.4125 26.0326 43.4125 26.0326 43.4125C26.0326 43.4125 41.9505 43.4125 45.9329 42.3416C47.0147 42.0467 48 41.4729 48.7904 40.6775C49.5807 39.8821 50.1482 38.893 50.4362 37.8094C51.5013 33.8096 51.5013 25.4687 51.5013 25.4687C51.5013 25.4687 51.5013 17.1277 50.4362 13.1279Z" fill="#FF0302"/>
<path d="M20.8232 33.0428V17.8947L34.1363 25.4687L20.8232 33.0428Z" fill="#FEFEFE"/>
</g>
<defs>
<clipPath id="clip0_7_187">
<rect width="50.9373" height="50.9373" fill="white" transform="translate(0.513428)"/>
</clipPath>
</defs>
</svg>
