<svg width="25" height="25" viewBox="0 0 25 25" fill="none" xmlns="http://www.w3.org/2000/svg">
<g clip-path="url(#clip0_14_459)">
<path fill-rule="evenodd" clip-rule="evenodd" d="M9.89128 7.30168C9.58178 7.12482 9.20153 7.12609 8.89321 7.30501C8.5849 7.48393 8.39514 7.81345 8.39514 8.16992V16.1699C8.39514 16.5264 8.5849 16.8559 8.89321 17.0348C9.20153 17.2137 9.58178 17.215 9.89128 17.0381L16.8912 13.0381C17.2028 12.8601 17.3951 12.5288 17.3951 12.1699C17.3951 11.811 17.2028 11.4797 16.8912 11.3017L9.89128 7.30168ZM14.3795 12.1699L10.3951 14.4467V9.8931L14.3795 12.1699Z" fill="white" stroke="black"/>
<path fill-rule="evenodd" clip-rule="evenodd" d="M0.395142 12.1699C0.395142 8.42019 0.395142 6.54532 1.35006 5.23099C1.65845 4.80652 2.03174 4.43323 2.45621 4.12483C3.77054 3.16992 5.64541 3.16992 9.39514 3.16992H15.3951C19.1448 3.16992 21.0197 3.16992 22.334 4.12483C22.7585 4.43323 23.1318 4.80652 23.4402 5.23099C24.3951 6.54532 24.3951 8.42019 24.3951 12.1699C24.3951 15.9196 24.3951 17.7945 23.4402 19.1088C23.1318 19.5333 22.7585 19.9066 22.334 20.215C21.0197 21.1699 19.1448 21.1699 15.3951 21.1699H9.39514C5.64541 21.1699 3.77054 21.1699 2.45621 20.215C2.03174 19.9066 1.65845 19.5333 1.35006 19.1088C0.395142 17.7945 0.395142 15.9196 0.395142 12.1699ZM9.39514 5.16992H15.3951C17.3145 5.16992 18.5934 5.17267 19.5624 5.27765C20.494 5.37858 20.8991 5.5544 21.1585 5.74287C21.4131 5.92791 21.6371 6.15188 21.8222 6.40656C22.0106 6.66597 22.1864 7.07105 22.2874 8.00261C22.3924 8.97159 22.3951 10.2505 22.3951 12.1699C22.3951 14.0893 22.3924 15.3682 22.2874 16.3372C22.1864 17.2688 22.0106 17.6739 21.8222 17.9333C21.6371 18.1879 21.4131 18.4119 21.1585 18.597C20.8991 18.7854 20.494 18.9612 19.5624 19.0622C18.5934 19.1672 17.3145 19.1699 15.3951 19.1699H9.39514C7.47572 19.1699 6.19681 19.1672 5.22783 19.0622C4.29627 18.9612 3.89119 18.7854 3.63178 18.597C3.3771 18.4119 3.15313 18.1879 2.96809 17.9333C2.77962 17.6739 2.6038 17.2688 2.50287 16.3372C2.39789 15.3682 2.39514 14.0893 2.39514 12.1699C2.39514 10.2505 2.39789 8.97159 2.50287 8.00261C2.6038 7.07105 2.77962 6.66597 2.96809 6.40656C3.15313 6.15188 3.3771 5.92791 3.63178 5.74287C3.89119 5.5544 4.29627 5.37858 5.22783 5.27765C6.19681 5.17267 7.47572 5.16992 9.39514 5.16992Z" fill="white" stroke="black"/>
</g>
<defs>
<clipPath id="clip0_14_459">
<rect width="24" height="24" fill="white" transform="translate(0.395142 0.169922)"/>
</clipPath>
</defs>
</svg>
